<?xml version="1.0" encoding="utf-8"?>
<!-- Generator: Adobe Illustrator 15.0.0, SVG Export Plug-In . SVG Version: 6.00 Build 0)  -->
<!DOCTYPE svg PUBLIC "-//W3C//DTD SVG 1.1//EN" "http://www.w3.org/Graphics/SVG/1.1/DTD/svg11.dtd">
<svg version="1.1" id="Layer_2" xmlns="http://www.w3.org/2000/svg" xmlns:xlink="http://www.w3.org/1999/xlink" x="0px" y="0px"
	 width="1224px" height="792px" viewBox="0 0 1224 792" enable-background="new 0 0 1224 792" xml:space="preserve">
<rect fill="#FFFFFF" width="458.378" height="530"/>
<line fill="none" stroke="#231F20" stroke-miterlimit="10" x1="14.539" y1="14.539" x2="14.539" y2="256.721"/>
<line fill="none" stroke="#231F20" stroke-miterlimit="10" x1="14.539" y1="14.539" x2="446.106" y2="14.539"/>
<line fill="none" stroke="#231F20" stroke-miterlimit="10" x1="444.192" y1="14.539" x2="444.192" y2="301.867"/>
<line fill="none" stroke="#231F20" stroke-miterlimit="10" x1="444.192" y1="301.867" x2="444.192" y2="514.972"/>
<line fill="none" stroke="#231F20" stroke-miterlimit="10" x1="444.192" y1="514.972" x2="14.539" y2="514.972"/>
<line fill="none" stroke="#231F20" stroke-miterlimit="10" x1="14.539" y1="514.972" x2="14.539" y2="272.408"/>
<line fill="none" stroke="#231F20" stroke-miterlimit="10" x1="14.539" y1="272.408" x2="28.312" y2="272.408"/>
<line fill="none" stroke="#231F20" stroke-miterlimit="10" x1="28.312" y1="272.408" x2="28.312" y2="201.245"/>
<line fill="none" stroke="#231F20" stroke-miterlimit="10" x1="14.539" y1="57.771" x2="43.616" y2="57.771"/>
<line fill="none" stroke="#231F20" stroke-miterlimit="10" x1="43.616" y1="57.771" x2="43.616" y2="29.842"/>
<line fill="none" stroke="#231F20" stroke-miterlimit="10" x1="43.616" y1="29.842" x2="29.078" y2="29.842"/>
<line fill="none" stroke="#231F20" stroke-miterlimit="10" x1="29.078" y1="29.842" x2="29.078" y2="43.806"/>
<line fill="none" stroke="#231F20" stroke-miterlimit="10" x1="58.155" y1="14.539" x2="58.155" y2="29.842"/>
<line fill="none" stroke="#231F20" stroke-miterlimit="10" x1="43.616" y1="43.806" x2="71.163" y2="43.806"/>
<line fill="none" stroke="#231F20" stroke-miterlimit="10" x1="71.163" y1="43.806" x2="71.163" y2="57.771"/>
<line fill="none" stroke="#231F20" stroke-miterlimit="10" x1="71.163" y1="57.771" x2="85.701" y2="57.771"/>
<line fill="none" stroke="#231F20" stroke-miterlimit="10" x1="71.163" y1="28.695" x2="215.401" y2="28.695"/>
<line fill="none" stroke="#231F20" stroke-miterlimit="10" x1="215.401" y1="28.695" x2="215.401" y2="14.539"/>
<line fill="none" stroke="#231F20" stroke-miterlimit="10" x1="229.557" y1="28.695" x2="429.654" y2="28.695"/>
<line fill="none" stroke="#231F20" stroke-miterlimit="10" x1="429.654" y1="28.695" x2="429.654" y2="100.623"/>
<line fill="none" stroke="#231F20" stroke-miterlimit="10" x1="429.654" y1="100.623" x2="402.107" y2="100.623"/>
<line fill="none" stroke="#231F20" stroke-miterlimit="10" x1="415.881" y1="128.169" x2="415.881" y2="43.806"/>
<line fill="none" stroke="#231F20" stroke-miterlimit="10" x1="402.107" y1="43.806" x2="402.107" y2="85.987"/>
<line fill="none" stroke="#231F20" stroke-miterlimit="10" x1="373.03" y1="57.771" x2="400.576" y2="57.771"/>
<line fill="none" stroke="#231F20" stroke-miterlimit="10" x1="386.803" y1="43.806" x2="386.803" y2="28.695"/>
<line fill="none" stroke="#231F20" stroke-miterlimit="10" x1="316.023" y1="29.842" x2="316.023" y2="43.806"/>
<line fill="none" stroke="#231F20" stroke-miterlimit="10" x1="316.023" y1="43.806" x2="373.03" y2="43.806"/>
<line fill="none" stroke="#231F20" stroke-miterlimit="10" x1="373.03" y1="43.806" x2="373.03" y2="128.169"/>
<line fill="none" stroke="#231F20" stroke-miterlimit="10" x1="386.803" y1="71.928" x2="386.803" y2="115.544"/>
<line fill="none" stroke="#231F20" stroke-miterlimit="10" x1="386.803" y1="115.544" x2="402.107" y2="115.544"/>
<line fill="none" stroke="#231F20" stroke-miterlimit="10" x1="402.107" y1="115.544" x2="402.107" y2="143.855"/>
<line fill="none" stroke="#231F20" stroke-miterlimit="10" x1="402.107" y1="143.855" x2="429.654" y2="143.855"/>
<line fill="none" stroke="#231F20" stroke-miterlimit="10" x1="429.654" y1="143.855" x2="429.654" y2="115.544"/>
<line fill="none" stroke="#231F20" stroke-miterlimit="10" x1="429.654" y1="115.544" x2="444.192" y2="115.544"/>
<line fill="none" stroke="#231F20" stroke-miterlimit="10" x1="373.03" y1="71.928" x2="301.867" y2="71.928"/>
<line fill="none" stroke="#231F20" stroke-miterlimit="10" x1="357.344" y1="57.771" x2="286.946" y2="57.771"/>
<line fill="none" stroke="#231F20" stroke-miterlimit="10" x1="286.946" y1="57.771" x2="286.946" y2="43.806"/>
<line fill="none" stroke="#231F20" stroke-miterlimit="10" x1="286.946" y1="43.806" x2="299.571" y2="43.806"/>
<line fill="none" stroke="#231F20" stroke-miterlimit="10" x1="286.946" y1="43.806" x2="244.097" y2="43.806"/>
<line fill="none" stroke="#231F20" stroke-miterlimit="10" x1="244.097" y1="43.806" x2="244.097" y2="57.771"/>
<line fill="none" stroke="#231F20" stroke-miterlimit="10" x1="244.097" y1="57.771" x2="270.876" y2="57.771"/>
<line fill="none" stroke="#231F20" stroke-miterlimit="10" x1="229.557" y1="28.695" x2="229.557" y2="71.928"/>
<line fill="none" stroke="#231F20" stroke-miterlimit="10" x1="229.189" y1="43.806" x2="143.282" y2="43.806"/>
<line fill="none" stroke="#231F20" stroke-miterlimit="10" x1="115.162" y1="29.842" x2="115.162" y2="43.806"/>
<line fill="none" stroke="#231F20" stroke-miterlimit="10" x1="85.701" y1="28.695" x2="85.701" y2="43.806"/>
<line fill="none" stroke="#231F20" stroke-miterlimit="10" x1="85.701" y1="43.806" x2="100.623" y2="43.806"/>
<line fill="none" stroke="#231F20" stroke-miterlimit="10" x1="100.623" y1="43.806" x2="100.623" y2="71.928"/>
<line fill="none" stroke="#231F20" stroke-miterlimit="10" x1="100.623" y1="57.771" x2="115.162" y2="57.771"/>
<line fill="none" stroke="#231F20" stroke-miterlimit="10" x1="115.162" y1="43.806" x2="128.935" y2="43.806"/>
<line fill="none" stroke="#231F20" stroke-miterlimit="10" x1="128.935" y1="43.806" x2="128.935" y2="85.987"/>
<line fill="none" stroke="#231F20" stroke-miterlimit="10" x1="128.935" y1="71.928" x2="171.403" y2="71.928"/>
<line fill="none" stroke="#231F20" stroke-miterlimit="10" x1="171.403" y1="71.928" x2="171.403" y2="57.771"/>
<line fill="none" stroke="#231F20" stroke-miterlimit="10" x1="171.403" y1="57.771" x2="213.488" y2="57.771"/>
<line fill="none" stroke="#231F20" stroke-miterlimit="10" x1="158.012" y1="43.806" x2="158.012" y2="57.771"/>
<line fill="none" stroke="#231F20" stroke-miterlimit="10" x1="143.282" y1="43.806" x2="143.282" y2="55.859"/>
<line fill="none" stroke="#231F20" stroke-miterlimit="10" x1="286.946" y1="57.771" x2="286.946" y2="71.928"/>
<line fill="none" stroke="#231F20" stroke-miterlimit="10" x1="286.946" y1="71.928" x2="186.236" y2="71.928"/>
<line fill="none" stroke="#231F20" stroke-miterlimit="10" x1="186.236" y1="71.928" x2="186.236" y2="100.623"/>
<line fill="none" stroke="#231F20" stroke-miterlimit="10" x1="186.236" y1="100.623" x2="158.012" y2="100.623"/>
<line fill="none" stroke="#231F20" stroke-miterlimit="10" x1="158.012" y1="100.623" x2="158.012" y2="86.275"/>
<line fill="none" stroke="#231F20" stroke-miterlimit="10" x1="158.012" y1="86.275" x2="143.282" y2="86.275"/>
<line fill="none" stroke="#231F20" stroke-miterlimit="10" x1="128.935" y1="85.987" x2="128.935" y2="100.623"/>
<line fill="none" stroke="#231F20" stroke-miterlimit="10" x1="128.935" y1="100.623" x2="143.282" y2="100.623"/>
<line fill="none" stroke="#231F20" stroke-miterlimit="10" x1="128.935" y1="85.987" x2="71.163" y2="85.987"/>
<line fill="none" stroke="#231F20" stroke-miterlimit="10" x1="115.162" y1="84.17" x2="115.162" y2="71.928"/>
<line fill="none" stroke="#231F20" stroke-miterlimit="10" x1="100.623" y1="71.928" x2="58.155" y2="71.928"/>
<line fill="none" stroke="#231F20" stroke-miterlimit="10" x1="58.155" y1="71.928" x2="58.155" y2="57.867"/>
<line fill="none" stroke="#231F20" stroke-miterlimit="10" x1="58.155" y1="71.928" x2="58.155" y2="86.275"/>
<line fill="none" stroke="#231F20" stroke-miterlimit="10" x1="58.155" y1="86.275" x2="43.616" y2="86.275"/>
<line fill="none" stroke="#231F20" stroke-miterlimit="10" x1="43.616" y1="71.928" x2="43.616" y2="57.771"/>
<line fill="none" stroke="#231F20" stroke-miterlimit="10" x1="43.616" y1="71.928" x2="28.312" y2="71.928"/>
<line fill="none" stroke="#231F20" stroke-miterlimit="10" x1="28.312" y1="71.928" x2="28.312" y2="186.707"/>
<line fill="none" stroke="#231F20" stroke-miterlimit="10" x1="43.616" y1="86.275" x2="43.616" y2="243.33"/>
<line fill="none" stroke="#231F20" stroke-miterlimit="10" x1="58.155" y1="100.623" x2="58.155" y2="128.169"/>
<line fill="none" stroke="#231F20" stroke-miterlimit="10" x1="57.389" y1="143.855" x2="57.389" y2="186.707"/>
<line fill="none" stroke="#231F20" stroke-miterlimit="10" x1="57.389" y1="186.707" x2="71.163" y2="186.707"/>
<line fill="none" stroke="#231F20" stroke-miterlimit="10" x1="71.163" y1="186.707" x2="71.163" y2="88.379"/>
<line fill="none" stroke="#231F20" stroke-miterlimit="10" x1="71.163" y1="88.379" x2="71.163" y2="85.987"/>
<line fill="none" stroke="#231F20" stroke-miterlimit="10" x1="71.163" y1="100.623" x2="115.162" y2="100.623"/>
<line fill="none" stroke="#231F20" stroke-miterlimit="10" x1="158.012" y1="100.623" x2="158.012" y2="115.544"/>
<line fill="none" stroke="#231F20" stroke-miterlimit="10" x1="158.012" y1="115.544" x2="87.615" y2="115.544"/>
<line fill="none" stroke="#231F20" stroke-miterlimit="10" x1="87.615" y1="115.544" x2="87.615" y2="143.855"/>
<line fill="none" stroke="#231F20" stroke-miterlimit="10" x1="100.623" y1="129.317" x2="115.162" y2="129.317"/>
<line fill="none" stroke="#231F20" stroke-miterlimit="10" x1="115.162" y1="129.317" x2="115.162" y2="115.544"/>
<line fill="none" stroke="#231F20" stroke-miterlimit="10" x1="171.403" y1="71.928" x2="171.403" y2="85.987"/>
<line fill="none" stroke="#231F20" stroke-miterlimit="10" x1="200.48" y1="87.183" x2="359.256" y2="87.183"/>
<line fill="none" stroke="#231F20" stroke-miterlimit="10" x1="359.256" y1="87.183" x2="359.256" y2="158.203"/>
<line fill="none" stroke="#231F20" stroke-miterlimit="10" x1="359.256" y1="143.855" x2="373.03" y2="143.855"/>
<line fill="none" stroke="#231F20" stroke-miterlimit="10" x1="373.03" y1="128.169" x2="388.334" y2="128.169"/>
<line fill="none" stroke="#231F20" stroke-miterlimit="10" x1="388.334" y1="128.169" x2="388.334" y2="256.721"/>
<line fill="none" stroke="#231F20" stroke-miterlimit="10" x1="402.107" y1="243.33" x2="402.107" y2="143.855"/>
<line fill="none" stroke="#231F20" stroke-miterlimit="10" x1="415.881" y1="158.203" x2="415.881" y2="263.99"/>
<line fill="none" stroke="#231F20" stroke-miterlimit="10" x1="357.344" y1="114.396" x2="244.097" y2="114.396"/>
<line fill="none" stroke="#231F20" stroke-miterlimit="10" x1="342.806" y1="100.623" x2="186.236" y2="100.623"/>
<line fill="none" stroke="#231F20" stroke-miterlimit="10" x1="200.48" y1="100.623" x2="200.48" y2="114.396"/>
<line fill="none" stroke="#231F20" stroke-miterlimit="10" x1="200.48" y1="114.396" x2="230.323" y2="114.396"/>
<line fill="none" stroke="#231F20" stroke-miterlimit="10" x1="230.323" y1="114.396" x2="230.323" y2="129.7"/>
<line fill="none" stroke="#231F20" stroke-miterlimit="10" x1="230.323" y1="129.7" x2="344.528" y2="129.7"/>
<line fill="none" stroke="#231F20" stroke-miterlimit="10" x1="172.124" y1="115.544" x2="186.236" y2="115.544"/>
<line fill="none" stroke="#231F20" stroke-miterlimit="10" x1="186.236" y1="115.544" x2="186.236" y2="129.7"/>
<line fill="none" stroke="#231F20" stroke-miterlimit="10" x1="186.236" y1="129.7" x2="215.402" y2="129.7"/>
<line fill="none" stroke="#231F20" stroke-miterlimit="10" x1="215.402" y1="129.7" x2="215.402" y2="143.855"/>
<line fill="none" stroke="#231F20" stroke-miterlimit="10" x1="215.402" y1="143.855" x2="242.565" y2="143.855"/>
<line fill="none" stroke="#231F20" stroke-miterlimit="10" x1="257.487" y1="131.229" x2="257.487" y2="156.48"/>
<line fill="none" stroke="#231F20" stroke-miterlimit="10" x1="58.155" y1="128.169" x2="71.163" y2="128.169"/>
<line fill="none" stroke="#231F20" stroke-miterlimit="10" x1="73.076" y1="158.203" x2="100.623" y2="158.203"/>
<line fill="none" stroke="#231F20" stroke-miterlimit="10" x1="100.623" y1="158.203" x2="100.623" y2="143.855"/>
<line fill="none" stroke="#231F20" stroke-miterlimit="10" x1="100.623" y1="158.203" x2="100.623" y2="171.785"/>
<line fill="none" stroke="#231F20" stroke-miterlimit="10" x1="115.162" y1="129.317" x2="115.162" y2="186.707"/>
<line fill="none" stroke="#231F20" stroke-miterlimit="10" x1="128.935" y1="129.7" x2="128.935" y2="358.492"/>
<line fill="none" stroke="#231F20" stroke-miterlimit="10" x1="143.282" y1="115.544" x2="143.282" y2="143.855"/>
<line fill="none" stroke="#231F20" stroke-miterlimit="10" x1="143.282" y1="143.855" x2="158.012" y2="143.855"/>
<line fill="none" stroke="#231F20" stroke-miterlimit="10" x1="158.012" y1="129.317" x2="172.124" y2="129.317"/>
<line fill="none" stroke="#231F20" stroke-miterlimit="10" x1="172.124" y1="129.317" x2="172.124" y2="158.012"/>
<line fill="none" stroke="#231F20" stroke-miterlimit="10" x1="172.124" y1="143.855" x2="215.402" y2="143.855"/>
<line fill="none" stroke="#231F20" stroke-miterlimit="10" x1="128.935" y1="158.012" x2="172.124" y2="158.012"/>
<line fill="none" stroke="#231F20" stroke-miterlimit="10" x1="186.236" y1="158.203" x2="300.719" y2="158.203"/>
<line fill="none" stroke="#231F20" stroke-miterlimit="10" x1="273.556" y1="143.665" x2="329.414" y2="143.665"/>
<line fill="none" stroke="#231F20" stroke-miterlimit="10" x1="329.414" y1="143.665" x2="329.414" y2="286.562"/>
<line fill="none" stroke="#231F20" stroke-miterlimit="10" x1="316.023" y1="143.855" x2="316.023" y2="171.785"/>
<line fill="none" stroke="#231F20" stroke-miterlimit="10" x1="344.528" y1="129.7" x2="344.528" y2="301.867"/>
<line fill="none" stroke="#231F20" stroke-miterlimit="10" x1="344.528" y1="171.785" x2="373.03" y2="171.785"/>
<line fill="none" stroke="#231F20" stroke-miterlimit="10" x1="373.03" y1="171.785" x2="373.03" y2="143.855"/>
<line fill="none" stroke="#231F20" stroke-miterlimit="10" x1="373.03" y1="171.785" x2="373.03" y2="186.707"/>
<line fill="none" stroke="#231F20" stroke-miterlimit="10" x1="358.779" y1="188.236" x2="358.779" y2="186.707"/>
<line fill="none" stroke="#231F20" stroke-miterlimit="10" x1="358.779" y1="188.236" x2="358.779" y2="429.271"/>
<line fill="none" stroke="#231F20" stroke-miterlimit="10" x1="359.256" y1="201.245" x2="373.03" y2="201.245"/>
<line fill="none" stroke="#231F20" stroke-miterlimit="10" x1="373.03" y1="215.783" x2="373.03" y2="243.33"/>
<line fill="none" stroke="#231F20" stroke-miterlimit="10" x1="373.03" y1="243.33" x2="358.779" y2="243.33"/>
<line fill="none" stroke="#231F20" stroke-miterlimit="10" x1="429.654" y1="143.855" x2="429.654" y2="286.562"/>
<line fill="none" stroke="#231F20" stroke-miterlimit="10" x1="414.35" y1="258.633" x2="402.107" y2="258.633"/>
<line fill="none" stroke="#231F20" stroke-miterlimit="10" x1="402.107" y1="258.633" x2="402.107" y2="314.492"/>
<line fill="none" stroke="#231F20" stroke-miterlimit="10" x1="415.881" y1="263.99" x2="415.881" y2="343.187"/>
<line fill="none" stroke="#231F20" stroke-miterlimit="10" x1="415.881" y1="301.867" x2="444.192" y2="301.867"/>
<line fill="none" stroke="#231F20" stroke-miterlimit="10" x1="373.03" y1="258.633" x2="388.334" y2="258.633"/>
<line fill="none" stroke="#231F20" stroke-miterlimit="10" x1="388.334" y1="258.633" x2="388.334" y2="329.414"/>
<line fill="none" stroke="#231F20" stroke-miterlimit="10" x1="388.334" y1="329.414" x2="402.107" y2="329.414"/>
<line fill="none" stroke="#231F20" stroke-miterlimit="10" x1="402.107" y1="329.414" x2="402.107" y2="358.492"/>
<line fill="none" stroke="#231F20" stroke-miterlimit="10" x1="402.107" y1="358.492" x2="414.35" y2="358.492"/>
<line fill="none" stroke="#231F20" stroke-miterlimit="10" x1="300.719" y1="158.203" x2="300.719" y2="186.707"/>
<line fill="none" stroke="#231F20" stroke-miterlimit="10" x1="300.719" y1="186.707" x2="329.414" y2="186.707"/>
<line fill="none" stroke="#231F20" stroke-miterlimit="10" x1="186.236" y1="158.203" x2="186.236" y2="171.785"/>
<line fill="none" stroke="#231F20" stroke-miterlimit="10" x1="186.236" y1="171.785" x2="143.282" y2="171.785"/>
<line fill="none" stroke="#231F20" stroke-miterlimit="10" x1="143.282" y1="171.785" x2="143.282" y2="186.707"/>
<line fill="none" stroke="#231F20" stroke-miterlimit="10" x1="158.012" y1="187.472" x2="200.819" y2="187.472"/>
<line fill="none" stroke="#231F20" stroke-miterlimit="10" x1="200.819" y1="187.472" x2="200.819" y2="172.454"/>
<line fill="none" stroke="#231F20" stroke-miterlimit="10" x1="202.393" y1="172.454" x2="287.425" y2="172.454"/>
<line fill="none" stroke="#231F20" stroke-miterlimit="10" x1="287.425" y1="172.454" x2="287.425" y2="314.492"/>
<line fill="none" stroke="#231F20" stroke-miterlimit="10" x1="300.719" y1="186.707" x2="300.719" y2="343.187"/>
<line fill="none" stroke="#231F20" stroke-miterlimit="10" x1="316.023" y1="201.245" x2="316.023" y2="329.414"/>
<line fill="none" stroke="#231F20" stroke-miterlimit="10" x1="316.023" y1="301.867" x2="344.528" y2="301.867"/>
<line fill="none" stroke="#231F20" stroke-miterlimit="10" x1="215.402" y1="186.707" x2="229.557" y2="186.707"/>
<line fill="none" stroke="#231F20" stroke-miterlimit="10" x1="244.097" y1="186.707" x2="271.643" y2="186.707"/>
<line fill="none" stroke="#231F20" stroke-miterlimit="10" x1="244.097" y1="186.707" x2="244.097" y2="201.245"/>
<line fill="none" stroke="#231F20" stroke-miterlimit="10" x1="215.402" y1="186.707" x2="215.402" y2="215.113"/>
<line fill="none" stroke="#231F20" stroke-miterlimit="10" x1="230.323" y1="200.909" x2="271.643" y2="200.909"/>
<line fill="none" stroke="#231F20" stroke-miterlimit="10" x1="271.643" y1="200.909" x2="271.643" y2="256.721"/>
<line fill="none" stroke="#231F20" stroke-miterlimit="10" x1="271.643" y1="228.814" x2="186.236" y2="228.814"/>
<line fill="none" stroke="#231F20" stroke-miterlimit="10" x1="257.487" y1="215.209" x2="187.854" y2="215.209"/>
<line fill="none" stroke="#231F20" stroke-miterlimit="10" x1="200.819" y1="215.113" x2="200.819" y2="201.245"/>
<line fill="none" stroke="#231F20" stroke-miterlimit="10" x1="187.854" y1="215.209" x2="187.854" y2="300.336"/>
<line fill="none" stroke="#231F20" stroke-miterlimit="10" x1="187.854" y1="300.336" x2="271.643" y2="300.336"/>
<line fill="none" stroke="#231F20" stroke-miterlimit="10" x1="271.643" y1="300.336" x2="271.643" y2="272.408"/>
<line fill="none" stroke="#231F20" stroke-miterlimit="10" x1="186.236" y1="200.909" x2="172.124" y2="200.909"/>
<line fill="none" stroke="#231F20" stroke-miterlimit="10" x1="172.124" y1="200.909" x2="172.124" y2="215.113"/>
<line fill="none" stroke="#231F20" stroke-miterlimit="10" x1="172.124" y1="215.113" x2="158.012" y2="215.113"/>
<line fill="none" stroke="#231F20" stroke-miterlimit="10" x1="158.012" y1="187.472" x2="158.012" y2="200.909"/>
<line fill="none" stroke="#231F20" stroke-miterlimit="10" x1="158.012" y1="200.909" x2="143.282" y2="200.909"/>
<line fill="none" stroke="#231F20" stroke-miterlimit="10" x1="100.623" y1="200.909" x2="100.623" y2="188.236"/>
<line fill="none" stroke="#231F20" stroke-miterlimit="10" x1="86.85" y1="172.454" x2="86.85" y2="415.497"/>
<line fill="none" stroke="#231F20" stroke-miterlimit="10" x1="127.022" y1="200.909" x2="86.85" y2="200.909"/>
<line fill="none" stroke="#231F20" stroke-miterlimit="10" x1="127.022" y1="215.113" x2="115.162" y2="215.113"/>
<line fill="none" stroke="#231F20" stroke-miterlimit="10" x1="100.623" y1="215.783" x2="100.623" y2="329.414"/>
<line fill="none" stroke="#231F20" stroke-miterlimit="10" x1="100.623" y1="316.023" x2="113.63" y2="316.023"/>
<line fill="none" stroke="#231F20" stroke-miterlimit="10" x1="127.022" y1="301.867" x2="115.162" y2="301.867"/>
<line fill="none" stroke="#231F20" stroke-miterlimit="10" x1="115.162" y1="301.867" x2="115.162" y2="228.814"/>
<line fill="none" stroke="#231F20" stroke-miterlimit="10" x1="143.282" y1="200.909" x2="143.282" y2="316.023"/>
<line fill="none" stroke="#231F20" stroke-miterlimit="10" x1="143.282" y1="301.867" x2="172.124" y2="301.867"/>
<line fill="none" stroke="#231F20" stroke-miterlimit="10" x1="172.124" y1="301.867" x2="172.124" y2="215.113"/>
<line fill="none" stroke="#231F20" stroke-miterlimit="10" x1="158.012" y1="229.557" x2="158.012" y2="286.372"/>
<line fill="none" stroke="#231F20" stroke-miterlimit="10" x1="158.012" y1="229.557" x2="143.282" y2="229.557"/>
<line fill="none" stroke="#231F20" stroke-miterlimit="10" x1="71.163" y1="186.707" x2="71.163" y2="215.113"/>
<line fill="none" stroke="#231F20" stroke-miterlimit="10" x1="71.163" y1="215.113" x2="86.85" y2="215.113"/>
<line fill="none" stroke="#231F20" stroke-miterlimit="10" x1="57.389" y1="200.909" x2="57.389" y2="272.408"/>
<line fill="none" stroke="#231F20" stroke-miterlimit="10" x1="58.155" y1="229.557" x2="71.163" y2="229.557"/>
<line fill="none" stroke="#231F20" stroke-miterlimit="10" x1="71.163" y1="229.557" x2="71.163" y2="286.562"/>
<line fill="none" stroke="#231F20" stroke-miterlimit="10" x1="71.163" y1="286.562" x2="58.155" y2="286.562"/>
<line fill="none" stroke="#231F20" stroke-miterlimit="10" x1="43.616" y1="243.33" x2="43.616" y2="300.336"/>
<line fill="none" stroke="#231F20" stroke-miterlimit="10" x1="58.155" y1="286.562" x2="58.155" y2="314.492"/>
<line fill="none" stroke="#231F20" stroke-miterlimit="10" x1="71.163" y1="300.526" x2="71.163" y2="358.492"/>
<line fill="none" stroke="#231F20" stroke-miterlimit="10" x1="71.163" y1="343.954" x2="58.155" y2="343.954"/>
<line fill="none" stroke="#231F20" stroke-miterlimit="10" x1="58.155" y1="343.954" x2="58.155" y2="329.508"/>
<line fill="none" stroke="#231F20" stroke-miterlimit="10" x1="28.312" y1="286.562" x2="28.312" y2="384.507"/>
<line fill="none" stroke="#231F20" stroke-miterlimit="10" x1="71.163" y1="316.023" x2="43.616" y2="316.023"/>
<line fill="none" stroke="#231F20" stroke-miterlimit="10" x1="43.616" y1="316.023" x2="43.616" y2="372.265"/>
<line fill="none" stroke="#231F20" stroke-miterlimit="10" x1="43.616" y1="358.492" x2="58.155" y2="358.492"/>
<line fill="none" stroke="#231F20" stroke-miterlimit="10" x1="58.155" y1="358.492" x2="58.155" y2="372.265"/>
<line fill="none" stroke="#231F20" stroke-miterlimit="10" x1="58.155" y1="372.265" x2="71.163" y2="372.265"/>
<line fill="none" stroke="#231F20" stroke-miterlimit="10" x1="71.163" y1="372.265" x2="71.163" y2="387.187"/>
<line fill="none" stroke="#231F20" stroke-miterlimit="10" x1="113.63" y1="316.023" x2="113.63" y2="343.954"/>
<line fill="none" stroke="#231F20" stroke-miterlimit="10" x1="113.63" y1="343.954" x2="100.623" y2="343.954"/>
<line fill="none" stroke="#231F20" stroke-miterlimit="10" x1="143.282" y1="329.988" x2="157.704" y2="329.988"/>
<line fill="none" stroke="#231F20" stroke-miterlimit="10" x1="157.704" y1="329.988" x2="157.704" y2="314.492"/>
<line fill="none" stroke="#231F20" stroke-miterlimit="10" x1="172.124" y1="303.588" x2="172.124" y2="344.145"/>
<line fill="none" stroke="#231F20" stroke-miterlimit="10" x1="172.124" y1="316.023" x2="242.565" y2="316.023"/>
<line fill="none" stroke="#231F20" stroke-miterlimit="10" x1="200.48" y1="318.319" x2="200.48" y2="343.187"/>
<line fill="none" stroke="#231F20" stroke-miterlimit="10" x1="229.189" y1="316.023" x2="229.189" y2="329.988"/>
<line fill="none" stroke="#231F20" stroke-miterlimit="10" x1="229.189" y1="329.988" x2="215.402" y2="329.988"/>
<line fill="none" stroke="#231F20" stroke-miterlimit="10" x1="243.478" y1="329.414" x2="257.87" y2="329.414"/>
<line fill="none" stroke="#231F20" stroke-miterlimit="10" x1="257.87" y1="329.414" x2="257.87" y2="300.526"/>
<line fill="none" stroke="#231F20" stroke-miterlimit="10" x1="271.643" y1="300.336" x2="271.643" y2="343.954"/>
<line fill="none" stroke="#231F20" stroke-miterlimit="10" x1="273.556" y1="330.754" x2="300.719" y2="330.754"/>
<line fill="none" stroke="#231F20" stroke-miterlimit="10" x1="287.425" y1="312.58" x2="287.425" y2="314.492"/>
<line fill="none" stroke="#231F20" stroke-miterlimit="10" x1="373.03" y1="272.598" x2="373.03" y2="415.497"/>
<line fill="none" stroke="#231F20" stroke-miterlimit="10" x1="373.03" y1="343.187" x2="388.334" y2="343.187"/>
<line fill="none" stroke="#231F20" stroke-miterlimit="10" x1="388.334" y1="343.187" x2="388.334" y2="444.192"/>
<line fill="none" stroke="#231F20" stroke-miterlimit="10" x1="402.107" y1="358.492" x2="402.107" y2="487.043"/>
<line fill="none" stroke="#231F20" stroke-miterlimit="10" x1="430.038" y1="316.023" x2="430.038" y2="401.341"/>
<line fill="none" stroke="#231F20" stroke-miterlimit="10" x1="429.654" y1="372.265" x2="415.881" y2="372.265"/>
<line fill="none" stroke="#231F20" stroke-miterlimit="10" x1="415.881" y1="372.265" x2="415.881" y2="429.271"/>
<line fill="none" stroke="#231F20" stroke-miterlimit="10" x1="415.881" y1="415.497" x2="430.038" y2="415.497"/>
<line fill="none" stroke="#231F20" stroke-miterlimit="10" x1="430.038" y1="415.497" x2="430.038" y2="444.192"/>
<line fill="none" stroke="#231F20" stroke-miterlimit="10" x1="430.038" y1="444.192" x2="415.881" y2="444.192"/>
<line fill="none" stroke="#231F20" stroke-miterlimit="10" x1="430.038" y1="444.192" x2="430.038" y2="487.043"/>
<line fill="none" stroke="#231F20" stroke-miterlimit="10" x1="172.124" y1="329.988" x2="185.941" y2="329.988"/>
<line fill="none" stroke="#231F20" stroke-miterlimit="10" x1="143.282" y1="329.988" x2="143.282" y2="358.682"/>
<line fill="none" stroke="#231F20" stroke-miterlimit="10" x1="143.282" y1="358.682" x2="200.48" y2="358.682"/>
<line fill="none" stroke="#231F20" stroke-miterlimit="10" x1="157.704" y1="344.335" x2="172.124" y2="344.335"/>
<line fill="none" stroke="#231F20" stroke-miterlimit="10" x1="185.941" y1="343.954" x2="287.139" y2="343.954"/>
<line fill="none" stroke="#231F20" stroke-miterlimit="10" x1="300.719" y1="343.187" x2="330.274" y2="343.187"/>
<line fill="none" stroke="#231F20" stroke-miterlimit="10" x1="330.274" y1="343.187" x2="330.274" y2="316.023"/>
<line fill="none" stroke="#231F20" stroke-miterlimit="10" x1="344.528" y1="316.023" x2="344.528" y2="415.497"/>
<line fill="none" stroke="#231F20" stroke-miterlimit="10" x1="344.528" y1="415.497" x2="287.139" y2="415.497"/>
<line fill="none" stroke="#231F20" stroke-miterlimit="10" x1="287.139" y1="415.497" x2="287.139" y2="401.341"/>
<line fill="none" stroke="#231F20" stroke-miterlimit="10" x1="330.274" y1="400.769" x2="100.623" y2="400.769"/>
<line fill="none" stroke="#231F20" stroke-miterlimit="10" x1="100.623" y1="400.769" x2="100.623" y2="343.954"/>
<line fill="none" stroke="#231F20" stroke-miterlimit="10" x1="113.63" y1="358.682" x2="113.63" y2="387.187"/>
<line fill="none" stroke="#231F20" stroke-miterlimit="10" x1="113.63" y1="387.187" x2="344.528" y2="387.187"/>
<line fill="none" stroke="#231F20" stroke-miterlimit="10" x1="330.274" y1="372.361" x2="330.274" y2="343.187"/>
<line fill="none" stroke="#231F20" stroke-miterlimit="10" x1="330.274" y1="372.361" x2="287.139" y2="372.361"/>
<line fill="none" stroke="#231F20" stroke-miterlimit="10" x1="287.139" y1="372.361" x2="287.139" y2="357.774"/>
<line fill="none" stroke="#231F20" stroke-miterlimit="10" x1="287.139" y1="357.774" x2="317.555" y2="357.774"/>
<line fill="none" stroke="#231F20" stroke-miterlimit="10" x1="287.139" y1="357.774" x2="229.749" y2="357.774"/>
<line fill="none" stroke="#231F20" stroke-miterlimit="10" x1="215.402" y1="344.335" x2="215.402" y2="372.936"/>
<line fill="none" stroke="#231F20" stroke-miterlimit="10" x1="271.643" y1="372.265" x2="187.854" y2="372.265"/>
<line fill="none" stroke="#231F20" stroke-miterlimit="10" x1="187.854" y1="372.265" x2="187.854" y2="358.492"/>
<line fill="none" stroke="#231F20" stroke-miterlimit="10" x1="157.704" y1="358.682" x2="157.704" y2="372.936"/>
<line fill="none" stroke="#231F20" stroke-miterlimit="10" x1="157.704" y1="372.936" x2="115.162" y2="372.936"/>
<line fill="none" stroke="#231F20" stroke-miterlimit="10" x1="171.881" y1="372.936" x2="171.881" y2="387.187"/>
<line fill="none" stroke="#231F20" stroke-miterlimit="10" x1="58.155" y1="372.265" x2="58.155" y2="444.192"/>
<line fill="none" stroke="#231F20" stroke-miterlimit="10" x1="57.389" y1="400.769" x2="43.616" y2="400.769"/>
<line fill="none" stroke="#231F20" stroke-miterlimit="10" x1="43.616" y1="402.488" x2="43.616" y2="487.043"/>
<line fill="none" stroke="#231F20" stroke-miterlimit="10" x1="43.616" y1="487.043" x2="28.312" y2="487.043"/>
<line fill="none" stroke="#231F20" stroke-miterlimit="10" x1="28.312" y1="472.122" x2="28.312" y2="384.507"/>
<line fill="none" stroke="#231F20" stroke-miterlimit="10" x1="28.312" y1="387.187" x2="43.616" y2="387.187"/>
<line fill="none" stroke="#231F20" stroke-miterlimit="10" x1="28.312" y1="472.122" x2="14.539" y2="472.122"/>
<line fill="none" stroke="#231F20" stroke-miterlimit="10" x1="86.85" y1="400.769" x2="71.163" y2="400.769"/>
<line fill="none" stroke="#231F20" stroke-miterlimit="10" x1="71.163" y1="400.769" x2="71.163" y2="456.434"/>
<line fill="none" stroke="#231F20" stroke-miterlimit="10" x1="71.163" y1="429.845" x2="388.334" y2="429.845"/>
<line fill="none" stroke="#231F20" stroke-miterlimit="10" x1="271.643" y1="428.315" x2="271.643" y2="415.497"/>
<line fill="none" stroke="#231F20" stroke-miterlimit="10" x1="271.643" y1="415.497" x2="115.162" y2="415.497"/>
<line fill="none" stroke="#231F20" stroke-miterlimit="10" x1="100.623" y1="400.769" x2="100.623" y2="428.603"/>
<line fill="none" stroke="#231F20" stroke-miterlimit="10" x1="415.881" y1="459.113" x2="415.881" y2="472.122"/>
<line fill="none" stroke="#231F20" stroke-miterlimit="10" x1="415.881" y1="472.122" x2="402.107" y2="472.122"/>
<line fill="none" stroke="#231F20" stroke-miterlimit="10" x1="415.881" y1="487.043" x2="444.192" y2="487.043"/>
<line fill="none" stroke="#231F20" stroke-miterlimit="10" x1="429.654" y1="501.197" x2="300.719" y2="501.197"/>
<line fill="none" stroke="#231F20" stroke-miterlimit="10" x1="300.719" y1="501.197" x2="300.719" y2="472.122"/>
<line fill="none" stroke="#231F20" stroke-miterlimit="10" x1="300.719" y1="472.122" x2="388.334" y2="472.122"/>
<line fill="none" stroke="#231F20" stroke-miterlimit="10" x1="316.023" y1="487.043" x2="402.107" y2="487.043"/>
<line fill="none" stroke="#231F20" stroke-miterlimit="10" x1="402.107" y1="459.113" x2="316.023" y2="459.113"/>
<line fill="none" stroke="#231F20" stroke-miterlimit="10" x1="373.03" y1="459.113" x2="373.03" y2="444.766"/>
<line fill="none" stroke="#231F20" stroke-miterlimit="10" x1="373.03" y1="444.766" x2="344.528" y2="444.766"/>
<line fill="none" stroke="#231F20" stroke-miterlimit="10" x1="330.274" y1="444.766" x2="273.556" y2="444.766"/>
<line fill="none" stroke="#231F20" stroke-miterlimit="10" x1="330.274" y1="456.434" x2="330.274" y2="444.766"/>
<line fill="none" stroke="#231F20" stroke-miterlimit="10" x1="257.87" y1="429.845" x2="257.87" y2="459.113"/>
<line fill="none" stroke="#231F20" stroke-miterlimit="10" x1="257.87" y1="459.113" x2="300.719" y2="459.113"/>
<line fill="none" stroke="#231F20" stroke-miterlimit="10" x1="300.719" y1="472.122" x2="229.749" y2="472.122"/>
<line fill="none" stroke="#231F20" stroke-miterlimit="10" x1="229.749" y1="472.122" x2="229.749" y2="459.113"/>
<line fill="none" stroke="#231F20" stroke-miterlimit="10" x1="229.749" y1="459.113" x2="215.402" y2="459.113"/>
<line fill="none" stroke="#231F20" stroke-miterlimit="10" x1="257.87" y1="459.113" x2="243.478" y2="459.113"/>
<line fill="none" stroke="#231F20" stroke-miterlimit="10" x1="243.478" y1="459.113" x2="243.478" y2="444.766"/>
<line fill="none" stroke="#231F20" stroke-miterlimit="10" x1="243.478" y1="444.766" x2="157.704" y2="444.766"/>
<line fill="none" stroke="#231F20" stroke-miterlimit="10" x1="200.591" y1="444.766" x2="200.591" y2="472.122"/>
<line fill="none" stroke="#231F20" stroke-miterlimit="10" x1="200.591" y1="472.122" x2="215.402" y2="472.122"/>
<line fill="none" stroke="#231F20" stroke-miterlimit="10" x1="215.402" y1="474.035" x2="215.402" y2="487.043"/>
<line fill="none" stroke="#231F20" stroke-miterlimit="10" x1="215.402" y1="487.043" x2="243.478" y2="487.043"/>
<line fill="none" stroke="#231F20" stroke-miterlimit="10" x1="243.478" y1="487.043" x2="243.478" y2="474.035"/>
<line fill="none" stroke="#231F20" stroke-miterlimit="10" x1="271.643" y1="487.043" x2="258.444" y2="487.043"/>
<line fill="none" stroke="#231F20" stroke-miterlimit="10" x1="258.444" y1="487.043" x2="258.444" y2="514.972"/>
<line fill="none" stroke="#231F20" stroke-miterlimit="10" x1="273.556" y1="501.197" x2="287.139" y2="501.197"/>
<line fill="none" stroke="#231F20" stroke-miterlimit="10" x1="287.139" y1="501.197" x2="287.139" y2="472.122"/>
<line fill="none" stroke="#231F20" stroke-miterlimit="10" x1="243.478" y1="514.972" x2="243.478" y2="501.197"/>
<line fill="none" stroke="#231F20" stroke-miterlimit="10" x1="229.079" y1="501.197" x2="14.539" y2="501.197"/>
<line fill="none" stroke="#231F20" stroke-miterlimit="10" x1="43.616" y1="487.043" x2="57.389" y2="487.043"/>
<line fill="none" stroke="#231F20" stroke-miterlimit="10" x1="57.389" y1="487.043" x2="57.389" y2="474.035"/>
<line fill="none" stroke="#231F20" stroke-miterlimit="10" x1="57.389" y1="474.035" x2="71.163" y2="474.035"/>
<line fill="none" stroke="#231F20" stroke-miterlimit="10" x1="43.616" y1="459.113" x2="86.85" y2="459.113"/>
<line fill="none" stroke="#231F20" stroke-miterlimit="10" x1="71.163" y1="451.939" x2="71.163" y2="459.113"/>
<line fill="none" stroke="#231F20" stroke-miterlimit="10" x1="86.85" y1="459.113" x2="86.85" y2="472.122"/>
<line fill="none" stroke="#231F20" stroke-miterlimit="10" x1="86.85" y1="472.122" x2="115.162" y2="472.122"/>
<line fill="none" stroke="#231F20" stroke-miterlimit="10" x1="115.162" y1="472.122" x2="115.162" y2="458.445"/>
<line fill="none" stroke="#231F20" stroke-miterlimit="10" x1="115.162" y1="458.445" x2="101.005" y2="458.445"/>
<line fill="none" stroke="#231F20" stroke-miterlimit="10" x1="115.162" y1="458.445" x2="128.935" y2="458.445"/>
<line fill="none" stroke="#231F20" stroke-miterlimit="10" x1="86.85" y1="444.479" x2="143.282" y2="444.479"/>
<line fill="none" stroke="#231F20" stroke-miterlimit="10" x1="143.282" y1="444.479" x2="143.282" y2="472.122"/>
<line fill="none" stroke="#231F20" stroke-miterlimit="10" x1="143.282" y1="472.122" x2="128.935" y2="472.122"/>
<line fill="none" stroke="#231F20" stroke-miterlimit="10" x1="143.282" y1="458.302" x2="157.704" y2="458.302"/>
<line fill="none" stroke="#231F20" stroke-miterlimit="10" x1="157.704" y1="458.302" x2="157.704" y2="444.766"/>
<line fill="none" stroke="#231F20" stroke-miterlimit="10" x1="172.124" y1="458.445" x2="200.591" y2="458.445"/>
<line fill="none" stroke="#231F20" stroke-miterlimit="10" x1="213.871" y1="487.043" x2="172.124" y2="487.043"/>
<line fill="none" stroke="#231F20" stroke-miterlimit="10" x1="186.358" y1="486.66" x2="186.358" y2="474.035"/>
<line fill="none" stroke="#231F20" stroke-miterlimit="10" x1="186.358" y1="474.035" x2="157.704" y2="474.035"/>
<line fill="none" stroke="#231F20" stroke-miterlimit="10" x1="157.704" y1="474.035" x2="157.704" y2="487.043"/>
<line fill="none" stroke="#231F20" stroke-miterlimit="10" x1="159.542" y1="487.043" x2="73.076" y2="487.043"/>
</svg>
